# xmcd
#
# Track frame offsets:
#	150
#	14475
#	29625
#	46050
#	62100
#	78225
#	92025
#	109425
#	126750
#	142500
#	158100
#
# Disc length: 2318 seconds
#
# Revision: 1
# Processed by: cddbd v1.5.1PL2 Copyright (c) Steve Scherf et al.
# Submitted via: audiograbber 1.82.01
#
DISCID=89090c0b
DTITLE=Roman Vojtek - To vedel bych rad
DYEAR=2005
DGENRE=
TTITLE0=Do hlavy mi stoupa
TTITLE1=Vedel bych rad
TTITLE2=Sik sik boj
TTITLE3=Nesplnitelna
TTITLE4=Loudil
TTITLE5=Proplouvam
TTITLE6=Podpantoflak
TTITLE7=Soumrak
TTITLE8=Bude lip
TTITLE9=Tady z ty vysky
TTITLE10=Sen
EXTD=
EXTT0=
EXTT1=
EXTT2=
EXTT3=
EXTT4=
EXTT5=
EXTT6=
EXTT7=
EXTT8=
EXTT9=
EXTT10=
PLAYORDER=
